<?xml version="1.0" encoding="UTF-8"?>
<svg id="b" data-name="Layer 2" xmlns="http://www.w3.org/2000/svg" xmlns:xlink="http://www.w3.org/1999/xlink" viewBox="0 0 53.54 54.06">
  <defs>
    <style>
      .k {
        fill: #3c3a41;
      }

      .l {
        fill: url(#h);
      }

      .m {
        fill: url(#j);
      }

      .n {
        fill: url(#g);
      }

      .o {
        fill: #e2e4f3;
      }

      .p {
        fill: url(#e);
      }

      .q {
        fill: url(#i);
      }

      .r {
        fill: url(#f);
      }

      .s {
        fill: #e8e8e8;
      }
    </style>
    <linearGradient id="e" x1="3.15" y1="14.31" x2="11.79" y2="14.31" gradientUnits="userSpaceOnUse">
      <stop offset="0" stop-color="#3d6687"/>
      <stop offset=".7" stop-color="#2a4b65"/>
    </linearGradient>
    <linearGradient id="f" x1="26.87" y1="38.72" x2="26.87" y2="42.48" gradientUnits="userSpaceOnUse">
      <stop offset="0" stop-color="#afaeb3"/>
      <stop offset="1" stop-color="#82aeab"/>
    </linearGradient>
    <linearGradient id="g" x1="44.16" y1="14.3" x2="50.39" y2="14.3" xlink:href="#e"/>
    <linearGradient id="h" x1="26.77" y1="18.71" x2="26.77" y2="47.56" gradientUnits="userSpaceOnUse">
      <stop offset="0" stop-color="#16ade1"/>
      <stop offset="1" stop-color="#6563ac"/>
    </linearGradient>
    <linearGradient id="i" y1="45.48" y2="49.23" xlink:href="#f"/>
    <linearGradient id="j" x1="15.22" y1="0" x2="15.22" y2="11.69" gradientUnits="userSpaceOnUse">
      <stop offset="0" stop-color="#b0d6d8"/>
      <stop offset=".26" stop-color="#acd5d7"/>
      <stop offset=".47" stop-color="#a2d2d7"/>
      <stop offset=".66" stop-color="#91cdd6"/>
      <stop offset=".84" stop-color="#7ac7d6"/>
      <stop offset="1" stop-color="#5fc0d5"/>
    </linearGradient>
  </defs>
  <g id="c" data-name="Layer 2">
    <g id="d" data-name="Print">
      <path class="p" d="M9.37,18.71h-3.6c-.94,0-1.83.22-2.62.64v-8.84c0-.68.55-1.24,1.24-1.24h7.4l-2.42,2.42v7.02Z"/>
      <path class="r" d="M38.01,40.6c0,.52-.21.98-.55,1.33-.35.34-.81.55-1.33.55h-18.53c-1.04,0-1.88-.85-1.88-1.88,0-.52.21-.98.55-1.32.34-.34.81-.55,1.33-.55h18.53c1.03,0,1.88.84,1.88,1.87Z"/>
      <path class="n" d="M50.39,10.51v8.83c-.78-.4-1.68-.63-2.62-.63h-3.61v-9.44h4.99c.68,0,1.24.56,1.24,1.24Z"/>
      <path class="s" d="M44.16,1.24v17.47H9.37v-7.02h10.46c.68,0,1.24-.55,1.24-1.24V0h21.85c.68,0,1.24.55,1.24,1.24Z"/>
      <path class="l" d="M50.39,19.34c-.78-.4-1.68-.63-2.62-.63H5.77c-.94,0-1.83.22-2.62.64-1.87.95-3.15,2.9-3.15,5.14v17.3c0,3.19,2.59,5.77,5.77,5.77h3.61v-10.68h-1.51c-1.03,0-1.88-.84-1.88-1.87,0-.51.21-.98.55-1.32.35-.35.81-.55,1.33-.55h37.81c1.03,0,1.87.84,1.87,1.87,0,.51-.21.98-.55,1.32-.34.35-.81.55-1.32.55h-1.51v10.68h3.6c3.19,0,5.77-2.58,5.77-5.77v-17.3c0-2.24-1.28-4.19-3.15-5.15ZM15.17,29.38c-.34.34-.81.55-1.32.55h-5.97c-1.03,0-1.88-.85-1.88-1.88,0-.51.21-.98.55-1.32.34-.35.82-.55,1.33-.55h5.97c.65,0,1.23.34,1.56.85.2.29.31.64.31,1.02,0,.51-.21.99-.55,1.33ZM20.34,29.38c-.34.34-.82.55-1.33.55-1.03,0-1.87-.85-1.87-1.88,0-.38.12-.73.31-1.02.07-.11.15-.21.24-.3.34-.35.81-.55,1.32-.55s.99.21,1.33.55c.09.09.17.19.24.3.2.29.31.64.31,1.02,0,.51-.21.99-.55,1.33Z"/>
      <path class="q" d="M38.01,47.35c0,.07,0,.14,0,.21-.05.43-.26.83-.54,1.12-.35.34-.81.55-1.33.55h-18.53c-.97,0-1.77-.73-1.87-1.67,0-.07,0-.14,0-.21,0-.51.21-.98.55-1.32.34-.35.81-.55,1.33-.55h18.53c1.03,0,1.88.84,1.88,1.87Z"/>
      <path class="s" d="M9.38,36.88v15.94c0,.68.55,1.24,1.24,1.24h32.31c.68,0,1.24-.56,1.24-1.24v-15.94H9.38ZM38.01,47.56c-.05.43-.26.83-.54,1.12-.35.34-.81.55-1.33.55h-18.53c-.97,0-1.77-.73-1.87-1.67,0-.07,0-.14,0-.21,0-.51.21-.98.55-1.32.34-.35.81-.55,1.33-.55h18.53c1.03,0,1.88.84,1.88,1.87,0,.07,0,.14,0,.21ZM37.46,41.92c-.35.34-.81.55-1.33.55h-18.53c-1.04,0-1.88-.85-1.88-1.88,0-.52.21-.98.55-1.32.34-.34.81-.55,1.33-.55h18.53c1.03,0,1.88.84,1.88,1.87,0,.52-.21.98-.55,1.33Z"/>
      <path class="k" d="M47.55,35.01c0,.51-.21.98-.55,1.32-.34.35-.81.55-1.32.55H7.87c-1.03,0-1.88-.84-1.88-1.87,0-.51.21-.98.55-1.32.35-.35.81-.55,1.33-.55h37.81c1.03,0,1.87.84,1.87,1.87Z"/>
      <path class="o" d="M15.72,28.05c0,.51-.21.99-.55,1.33-.34.34-.81.55-1.32.55h-5.97c-1.03,0-1.88-.85-1.88-1.88,0-.51.21-.98.55-1.32.34-.35.82-.55,1.33-.55h5.97c.65,0,1.23.34,1.56.85.2.29.31.64.31,1.02Z"/>
      <path class="o" d="M20.9,28.05c0,.51-.21.99-.55,1.33-.34.34-.82.55-1.33.55-1.03,0-1.87-.85-1.87-1.88,0-.38.12-.73.31-1.02.07-.11.15-.21.24-.3.34-.35.81-.55,1.32-.55s.99.21,1.33.55c.09.09.17.19.24.3.2.29.31.64.31,1.02Z"/>
      <path class="m" d="M21.07,0v10.45c0,.68-.55,1.24-1.24,1.24h-10.46l2.42-2.42L21.07,0Z"/>
    </g>
  </g>
</svg>