<?xml version="1.0" encoding="UTF-8"?>
<svg id="b" data-name="Layer 2" xmlns="http://www.w3.org/2000/svg" xmlns:xlink="http://www.w3.org/1999/xlink" viewBox="0 0 61.96 64.95">
  <defs>
    <style>
      .f {
        fill: url(#d);
      }

      .g {
        fill: url(#e);
      }
    </style>
    <linearGradient id="d" x1="23.77" y1="-20.94" x2="25.06" y2="74.63" gradientUnits="userSpaceOnUse">
      <stop offset="0" stop-color="#16ade1"/>
      <stop offset="1" stop-color="#6563ac"/>
    </linearGradient>
    <linearGradient id="e" x1="51.41" y1="-21.3" x2="52.7" y2="74.22" xlink:href="#d"/>
  </defs>
  <g id="c" data-name="Layer 2">
    <g>
      <path class="f" d="M5.34,47.23c-.67.7-1.17,1.57-1.45,2.52L.06,62.99c-.23.8.21,1.65.97,1.89.27.09.56.08.83,0l12.63-4.01c.91-.29,1.74-.81,2.41-1.51L49.3,25.39l-11.57-12.12L5.34,47.23Z"/>
      <path class="g" d="M59.57,2.51c-3.19-3.35-8.37-3.35-11.57,0l-6.33,6.64,11.57,12.12,6.33-6.63c3.19-3.35,3.2-8.78,0-12.12Z"/>
    </g>
  </g>
</svg>